<svg width="28" height="28" viewBox="0 0 28 28" fill="none" xmlns="http://www.w3.org/2000/svg">
<path d="M11.3561 9.17591C10.8061 9.12591 10.3197 9.53125 10.2697 10.0813C10.2197 10.6313 10.6251 11.1177 11.1751 11.1677L11.3561 9.17591ZM17.2813 10.7187L18.2772 10.6281C18.2335 10.1474 17.8526 9.76649 17.3718 9.72279L17.2813 10.7187ZM16.8323 16.8249C16.8823 17.3749 17.3687 17.7802 17.9187 17.7302C18.4687 17.6802 18.874 17.1938 18.824 16.6438L16.8323 16.8249ZM10.0116 16.5741C9.6211 16.9646 9.6211 17.5978 10.0116 17.9883C10.4021 18.3789 11.0353 18.3789 11.4258 17.9883L10.0116 16.5741ZM11.2656 10.1718L11.1751 11.1677L17.1907 11.7146L17.2813 10.7187L17.3718 9.72279L11.3561 9.17591L11.2656 10.1718ZM17.2813 10.7187L16.2854 10.8092L16.8323 16.8249L17.8282 16.7343L18.824 16.6438L18.2772 10.6281L17.2813 10.7187ZM17.2813 10.7187L16.5742 10.0116L10.0116 16.5741L10.7187 17.2812L11.4258 17.9883L17.9884 11.4258L17.2813 10.7187ZM24.5 14H23.5C23.5 19.2467 19.2467 23.5 14 23.5V24.5V25.5C20.3513 25.5 25.5 20.3513 25.5 14H24.5ZM14 24.5V23.5C8.75329 23.5 4.5 19.2467 4.5 14H3.5H2.5C2.5 20.3513 7.64873 25.5 14 25.5V24.5ZM3.5 14H4.5C4.5 8.75329 8.75329 4.5 14 4.5V3.5V2.5C7.64873 2.5 2.5 7.64873 2.5 14H3.5ZM14 3.5V4.5C19.2467 4.5 23.5 8.75329 23.5 14H24.5H25.5C25.5 7.64873 20.3513 2.5 14 2.5V3.5Z" fill="#191A23"/>
</svg>
