<svg width="25" height="24" viewBox="0 0 25 24" fill="none" xmlns="http://www.w3.org/2000/svg">
<path d="M11.5984 3.80369H5.9119C4.02756 3.80369 2.5 5.3312 2.5 7.21548V18.5882C2.5 20.4725 4.02756 22 5.9119 22H17.2849C19.1692 22 20.6968 20.4725 20.6968 18.5882L20.6968 12.9018M8.18649 16.3136L12.3244 15.4799C12.544 15.4356 12.7457 15.3274 12.9041 15.1689L22.1671 5.90116C22.6112 5.45682 22.6109 4.73657 22.1664 4.2926L20.2042 2.33264C19.7599 1.88886 19.04 1.88916 18.5961 2.33332L9.3321 11.6021C9.174 11.7602 9.06605 11.9615 9.02175 12.1807L8.18649 16.3136Z" stroke="#191A23" stroke-width="2" stroke-linecap="round" stroke-linejoin="round"/>
</svg>
