<svg width="32" height="33" viewBox="0 0 32 33" fill="none" xmlns="http://www.w3.org/2000/svg">
<path d="M24.5965 24.8385L23.8338 23.5468L24.5965 24.8385ZM25.2519 23.6903H23.7519H25.2519ZM14.6208 29.038L13.8161 30.3039L14.6208 29.038ZM17.4072 29.0837L18.1699 30.3753L17.4072 29.0837ZM2.53876 11.349L1.77087 10.0605H1.77087L2.53876 11.349ZM2.53876 12.4944L1.77087 13.7829H1.77087L2.53876 12.4944ZM16.6825 20.1097L17.4504 21.3982L16.6825 20.1097ZM15.3174 20.1097L16.0853 18.8211L15.3174 20.1097ZM29.4612 11.349L30.2291 10.0605L29.4612 11.349ZM29.4612 12.4944L28.6933 11.2059L29.4612 12.4944ZM8.02341 24.8443L8.82808 23.5784L8.02341 24.8443ZM16.6825 3.73374L15.9146 5.02228L16.6825 3.73374ZM15.3174 3.73374L16.0853 5.02228L15.3174 3.73374ZM31.1 11.8995C31.1 11.0711 30.4284 10.3995 29.6 10.3995C28.7715 10.3995 28.1 11.0711 28.1 11.8995H31.1ZM28.1 19.0995C28.1 19.9279 28.7715 20.5995 29.6 20.5995C30.4284 20.5995 31.1 19.9279 31.1 19.0995H28.1ZM16.6825 3.73374L15.9146 5.02228L28.6933 12.6376L29.4612 11.349L30.2291 10.0605L17.4504 2.4452L16.6825 3.73374ZM29.4612 12.4944L28.6933 11.2059L15.9146 18.8211L16.6825 20.1097L17.4504 21.3982L30.2291 13.7829L29.4612 12.4944ZM2.53876 11.349L3.30665 12.6376L16.0853 5.02228L15.3174 3.73374L14.5495 2.4452L1.77087 10.0605L2.53876 11.349ZM15.3174 20.1097L16.0853 18.8211L8.17323 14.106L7.40534 15.3946L6.63745 16.6831L14.5495 21.3982L15.3174 20.1097ZM7.40534 15.3946L8.17323 14.106L3.30665 11.2059L2.53876 12.4944L1.77087 13.7829L6.63745 16.6831L7.40534 15.3946ZM7.40534 15.3946H5.90534V23.7191H7.40534H8.90534V15.3946H7.40534ZM8.02341 24.8443L7.21873 26.1102L13.8161 30.3039L14.6208 29.038L15.4254 27.7721L8.82808 23.5784L8.02341 24.8443ZM17.4072 29.0837L18.1699 30.3753L25.3592 26.1301L24.5965 24.8385L23.8338 23.5468L16.6445 27.7921L17.4072 29.0837ZM25.2519 23.6903L26.7519 23.6904L26.7519 15.3946H25.2519L23.7519 15.3946L23.7519 23.6903H25.2519ZM24.5965 24.8385L25.3592 26.1301C26.2223 25.6204 26.7519 24.6927 26.7519 23.6903H25.2519H23.7519C23.7519 23.6314 23.783 23.5768 23.8338 23.5468L24.5965 24.8385ZM14.6208 29.038L13.8161 30.3039C15.1385 31.1445 16.8206 31.1721 18.1699 30.3753L17.4072 29.0837L16.6445 27.7921C16.2667 28.0152 15.7957 28.0075 15.4254 27.7721L14.6208 29.038ZM2.53876 11.349L1.77087 10.0605C0.360878 10.9008 0.360887 12.9427 1.77087 13.7829L2.53876 12.4944L3.30665 11.2059C3.84895 11.529 3.84896 12.3144 3.30665 12.6376L2.53876 11.349ZM16.6825 20.1097L15.9146 18.8211C15.9672 18.7898 16.0327 18.7898 16.0853 18.8211L15.3174 20.1097L14.5495 21.3982C15.4432 21.9308 16.5568 21.9308 17.4504 21.3982L16.6825 20.1097ZM29.4612 11.349L28.6933 12.6376C28.151 12.3144 28.151 11.529 28.6933 11.2059L29.4612 12.4944L30.2291 13.7829C31.6391 12.9427 31.6391 10.9008 30.2291 10.0605L29.4612 11.349ZM7.40534 23.7191H5.90534C5.90534 24.6883 6.40077 25.5903 7.21873 26.1102L8.02341 24.8443L8.82808 23.5784C8.8762 23.609 8.90534 23.6621 8.90534 23.7191H7.40534ZM16.6825 3.73374L17.4504 2.4452C16.5568 1.91264 15.4432 1.91263 14.5495 2.4452L15.3174 3.73374L16.0853 5.02228C16.0327 5.05361 15.9672 5.05361 15.9146 5.02228L16.6825 3.73374ZM29.6 11.8995H28.1V19.0995H29.6H31.1V11.8995H29.6Z" fill="#191A23"/>
</svg>
