<svg width="32" height="33" viewBox="0 0 32 33" fill="none" xmlns="http://www.w3.org/2000/svg">
<path d="M12.7999 22.9H19.1999M9.06657 29.2999H22.9332C24.406 29.2999 25.5999 28.106 25.5999 26.6333V6.36662C25.5999 4.89386 24.406 3.69995 22.9332 3.69995H9.06657C7.59381 3.69995 6.3999 4.89386 6.3999 6.36662V26.6333C6.3999 28.106 7.59381 29.2999 9.06657 29.2999ZM19.1999 11.7C19.1999 13.4673 17.7672 14.9 15.9999 14.9C14.2326 14.9 12.7999 13.4673 12.7999 11.7C12.7999 9.93264 14.2326 8.49995 15.9999 8.49995C17.7672 8.49995 19.1999 9.93264 19.1999 11.7Z" stroke="#191A23" stroke-width="3" stroke-linecap="round" stroke-linejoin="round"/>
</svg>
