<svg width="52" height="52" viewBox="0 0 52 52" fill="none" xmlns="http://www.w3.org/2000/svg">
<rect width="52" height="52" rx="26" fill="#4FC3F7"/>
<path d="M11.7002 41.6C12.6994 40.4809 17.3791 35.3311 18.7505 35.3311H33.2507C35.238 35.3311 39.2948 39.6 40.3002 41.1047M46.8002 26C46.8002 37.4875 37.4877 46.8 26.0002 46.8C14.5127 46.8 5.2002 37.4875 5.2002 26C5.2002 14.5125 14.5127 5.20001 26.0002 5.20001C37.4877 5.20001 46.8002 14.5125 46.8002 26ZM33.451 18.9106C33.451 14.9423 30.101 11.7 26.0008 11.7C21.9007 11.7 18.5506 14.9423 18.5506 18.9106C18.5506 22.8789 21.9007 26.1212 26.0008 26.1212C30.101 26.1212 33.451 22.8789 33.451 18.9106Z" stroke="#191A23" stroke-width="2"/>
</svg>
