<svg width="190" height="199" viewBox="0 0 190 199" fill="none" xmlns="http://www.w3.org/2000/svg">
<g filter="url(#filter0_d_39_7517)">
<path fill-rule="evenodd" clip-rule="evenodd" d="M167.846 0.510449C169.757 -0.0301638 171.765 -0.142767 173.724 0.179395C175.684 0.501657 177.55 1.25071 179.187 2.37471C180.825 3.49882 182.195 4.97025 183.2 6.6833C184.205 8.39633 184.82 10.3102 185.003 12.2878C185.185 14.2655 184.93 16.2598 184.255 18.1276C183.618 19.8884 182.622 21.4953 181.334 22.8503L181.344 22.862L160.344 42.862C160.152 43.0456 159.848 43.0453 159.655 42.862L138.889 23.0847L138.885 23.0896C138.856 23.0598 138.827 23.0288 138.799 22.9987L138.655 22.862L138.661 22.8552C137.379 21.4845 136.394 19.8617 135.77 18.0896C135.11 16.2155 134.87 14.2191 135.066 12.2419C135.262 10.2645 135.889 8.35371 136.904 6.64522C137.919 4.93679 139.296 3.47132 140.938 2.35322C142.581 1.23518 144.449 0.491895 146.411 0.174512C148.372 -0.142754 150.38 -0.0266122 152.291 0.516309C154.202 1.05939 155.972 2.01587 157.473 3.31709C158.974 4.618 159 4.99991 160 6.49971L160.627 5.55049C161.165 4.74677 161.54 4.28322 162.666 3.30732C164.166 2.00613 165.935 1.05115 167.846 0.510449ZM173.564 1.154C171.747 0.85535 169.887 0.959497 168.115 1.46064L167.785 1.55928C166.14 2.07389 164.617 2.92268 163.313 4.05342C162.009 5.18429 160.894 6.62311 160.144 8.18525L160 8.49971C159.249 6.81758 158.216 5.2724 156.824 4.06611C155.432 2.85994 153.792 1.97385 152.02 1.47041C150.248 0.96704 148.387 0.858888 146.569 1.15303C144.751 1.44725 143.019 2.13707 141.496 3.17354L141.214 3.3708C139.815 4.37987 138.637 5.66623 137.756 7.15107C136.815 8.73484 136.234 10.5065 136.052 12.3396C135.871 14.1724 136.094 16.0231 136.706 17.7604C137.282 19.396 138.188 20.8939 139.369 22.1608L160 41.8083L180.599 22.1901C181.803 20.9298 182.733 19.4325 183.326 17.7917C183.951 16.0603 184.188 14.2118 184.019 12.3786C183.85 10.5453 183.279 8.77132 182.347 7.1833C181.474 5.6946 180.303 4.40258 178.91 3.38838L178.629 3.18916C177.206 2.21231 175.596 1.5409 173.904 1.21455L173.564 1.154Z" fill="#4FC3F7"/>
<path d="M173.564 1.154C171.747 0.85535 169.887 0.959497 168.115 1.46064L167.785 1.55928C166.14 2.07389 164.617 2.92268 163.313 4.05342C162.009 5.18429 160.894 6.62311 160.144 8.18525L160 8.49971C159.249 6.81758 158.216 5.2724 156.824 4.06611C155.432 2.85994 153.792 1.97385 152.02 1.47041C150.248 0.96704 148.387 0.858888 146.569 1.15303C144.751 1.44725 143.019 2.13707 141.496 3.17354L141.214 3.3708C139.815 4.37987 138.637 5.66623 137.756 7.15107C136.815 8.73484 136.234 10.5065 136.052 12.3396C135.871 14.1724 136.094 16.0231 136.706 17.7604C137.282 19.396 138.188 20.8939 139.369 22.1608L160 41.8083L180.599 22.1901C181.803 20.9298 182.733 19.4325 183.326 17.7917C183.951 16.0603 184.188 14.2118 184.019 12.3786C183.85 10.5453 183.279 8.77132 182.347 7.1833C181.474 5.6946 180.303 4.40258 178.91 3.38838L178.629 3.18916C177.206 2.21231 175.596 1.5409 173.904 1.21455L173.564 1.154Z" fill="#4FC3F7"/>
</g>
<g filter="url(#filter1_d_39_7517)">
<path fill-rule="evenodd" clip-rule="evenodd" d="M86.001 12.01C89.2557 12.1407 92.3314 13.5366 94.5723 15.9007C96.813 18.2647 98.0425 21.4104 97.999 24.6673L97.9756 25.2766C97.9378 25.8832 97.8563 26.4835 97.7324 27.0725C97.6498 27.4654 97.5483 27.8538 97.4287 28.2356C96.9008 29.921 96.0173 31.4855 94.8271 32.8196L94.8574 32.8499L86.7314 41.1477L107.562 21.7239L107.506 21.6468C110.256 19.6175 113.673 18.7021 117.069 19.0852C120.466 19.4685 123.592 21.1222 125.821 23.7132C128.05 26.3042 129.219 29.6423 129.091 33.0579L129.075 33.3772C128.874 36.675 127.472 39.7897 125.131 42.1311L125.104 42.1048L106.065 61.429L122.014 46.7669L122.002 46.7522C124.499 44.8033 127.622 43.8327 130.784 44.0237C133.946 44.2148 136.929 45.554 139.174 47.7893C141.418 50.0246 142.769 53.0025 142.973 56.1634C143.176 59.3244 142.219 62.4523 140.28 64.9573L140.264 64.9446L117.639 87.9016L129.337 77.4222L129.326 77.4114C130.277 76.4504 131.389 75.6657 132.61 75.0921L133.14 74.8587C134.57 74.2728 136.103 73.9813 137.648 74.0013L138.227 74.0237C139.573 74.109 140.896 74.43 142.134 74.9749C143.548 75.5975 144.823 76.4992 145.881 77.6253C146.939 78.7513 147.759 80.0795 148.293 81.5296C148.826 82.9798 149.062 84.5234 148.986 86.0667L148.943 86.6438C148.809 87.9861 148.439 89.2962 147.85 90.513L147.585 91.0276C146.937 92.2106 146.084 93.272 145.065 94.1614L145.062 94.1575L117.356 122.351L117.352 122.357L117.333 122.374C117.321 122.386 117.304 122.403 117.281 122.425C117.235 122.47 117.167 122.538 117.077 122.625C116.898 122.8 116.633 123.058 116.292 123.387C115.61 124.045 114.621 124.991 113.396 126.14C110.948 128.438 107.551 131.553 103.764 134.82C99.9767 138.085 95.7929 141.507 91.7695 144.416C87.7537 147.32 83.8669 149.737 80.6797 150.967C68.0604 155.838 57.444 154.806 49.8535 152.478C42.4115 150.195 28.0409 143.373 18.5518 131.38L18.1035 130.805C12.33 123.283 4.50017 110.171 4.5 97.0003C4.5 78.2528 4.37496 64.6297 4.25 55.6946C4.18752 51.2275 4.12497 47.9316 4.07812 45.7532C4.05471 44.6643 4.03514 43.8541 4.02148 43.3167C4.01804 43.181 4.01433 43.0623 4.01172 42.9612L4.00684 42.9622L4 42.5765V42.5149L4.00098 42.514C3.99936 40.7393 4.30159 38.9773 4.89648 37.305L5.03027 36.9436C5.72081 35.1455 6.74043 33.4928 8.03516 32.0696L8.29785 31.7874C9.62928 30.3952 11.2081 29.2643 12.9521 28.4515L13.3027 28.2932C15.0687 27.523 16.9619 27.0894 18.8848 27.013L19.2695 27.0022C21.3241 26.9717 23.3644 27.3494 25.2715 28.1145C27.1786 28.8797 28.9142 30.0171 30.3779 31.4593C31.8416 32.9014 33.0045 34.6205 33.7979 36.5159C34.5267 38.2575 34.9304 40.1161 34.9912 42.0003H35V55.8225L77.1523 15.1409L77.1816 15.1712C79.6003 13.0145 82.7618 11.8801 86.001 12.01ZM85.9609 13.0091C82.9667 12.889 80.0437 13.9429 77.8145 15.9456L77.7881 15.9163L34.8477 57.3597C34.7033 57.4988 34.4892 57.5385 34.3047 57.4602C34.1202 57.3819 34.0002 57.2007 34 57.0003V42.5003H33.9922C33.9922 40.6993 33.657 38.9147 33.0039 37.2386L32.8682 36.9046C32.1727 35.2431 31.1746 33.726 29.9248 32.4319L29.6709 32.1761C28.3878 30.9121 26.881 29.8989 25.2285 29.1878L24.8965 29.0501C23.1133 28.3347 21.2053 27.9805 19.2842 28.0091L18.9248 28.0188C17.1271 28.0902 15.3571 28.496 13.7061 29.2161L13.3779 29.3645C11.7473 30.1245 10.2713 31.182 9.02637 32.4837L8.78027 32.7474C7.56964 34.078 6.61637 35.6236 5.9707 37.305L5.8457 37.6429C5.2428 39.3378 4.96005 41.1317 5.01367 42.9319H5.01172C5.01435 43.034 5.018 43.154 5.02148 43.2913C5.03517 43.83 5.05468 44.6415 5.07812 45.7317C5.12503 47.9127 5.18749 51.2113 5.25 55.6809C5.37503 64.6209 5.5 78.2485 5.5 97.0003C5.50017 109.829 13.1575 122.718 18.8965 130.196L19.3369 130.761C28.6588 142.542 42.823 149.276 50.1465 151.523C57.5559 153.796 67.9401 154.812 80.3203 150.033C83.3829 148.851 87.1842 146.499 91.1836 143.607C95.1755 140.72 99.3361 137.318 103.111 134.062C106.886 130.807 110.271 127.702 112.713 125.41C113.934 124.265 114.918 123.323 115.598 122.667C115.937 122.34 116.2 122.083 116.378 121.909C116.467 121.823 116.536 121.756 116.581 121.711C116.603 121.689 116.62 121.673 116.632 121.661C116.637 121.656 116.642 121.652 116.645 121.649L116.647 121.645L144.402 93.4026L144.385 93.3821C145.311 92.5727 146.087 91.6061 146.677 90.5296L146.919 90.0618C147.455 88.9545 147.791 87.7619 147.913 86.5403L147.952 86.0149C148.013 84.7864 147.856 83.5577 147.491 82.386L147.321 81.887C146.896 80.7324 146.272 79.6626 145.478 78.7268L145.126 78.3343C144.283 77.4377 143.291 76.6973 142.193 76.1468L141.717 75.9222C140.59 75.4263 139.387 75.1335 138.161 75.0559L137.635 75.0364C136.229 75.0183 134.833 75.2836 133.532 75.8167L133.05 76.0286C131.939 76.5506 130.927 77.2646 130.062 78.139L130.049 78.1263L106.334 99.3724C106.133 99.5523 105.824 99.5402 105.638 99.345C105.452 99.1497 105.455 98.842 105.644 98.6497L139.467 64.3274L139.458 64.3206C141.13 62.1601 142.009 59.4963 141.958 56.7757L141.936 56.2308C141.76 53.5043 140.656 50.9254 138.817 48.9192L138.439 48.5266C136.504 46.5987 133.971 45.3954 131.265 45.1077L130.722 45.0618C127.813 44.8861 124.939 45.7786 122.642 47.5716L122.631 47.5589L91.8389 75.8684C91.6393 76.0517 91.3291 76.0426 91.1406 75.8479C90.9523 75.653 90.9536 75.343 91.1436 75.1497L124.397 41.3977L124.394 41.3938C126.485 39.3025 127.763 36.5421 128.012 33.6077L128.048 33.0188C128.159 30.0632 127.218 27.1705 125.404 24.8499L125.03 24.3929C123.101 22.151 120.445 20.6703 117.537 20.2024L116.952 20.1224C113.897 19.7777 110.826 20.5722 108.322 22.346L108.341 22.3655L71.3408 56.8655C71.1423 57.0504 70.8323 57.0437 70.6426 56.8499C70.4529 56.6556 70.4529 56.3448 70.6426 56.1507L93.6514 32.6516L93.6318 32.6321C94.8236 31.4404 95.7271 30.0129 96.2969 28.4593C96.3601 28.2867 96.4196 28.1123 96.4746 27.9368C96.5846 27.5854 96.6779 27.228 96.7539 26.8665C96.9059 26.1439 96.989 25.4025 96.999 24.6536C97.0015 24.4668 96.9997 24.2799 96.9932 24.094C96.901 21.4854 95.923 18.9848 94.2217 17.0052L93.8467 16.5891C91.9139 14.5502 89.3061 13.2933 86.5205 13.0452L85.9609 13.0091Z" fill="white"/>
<path d="M85.9609 13.0091C82.9667 12.889 80.0437 13.9429 77.8145 15.9456L77.7881 15.9163L34.8477 57.3597C34.7033 57.4988 34.4892 57.5385 34.3047 57.4602C34.1202 57.3819 34.0002 57.2007 34 57.0003V42.5003H33.9922C33.9922 40.6993 33.657 38.9147 33.0039 37.2386L32.8682 36.9046C32.1727 35.2431 31.1746 33.726 29.9248 32.4319L29.6709 32.1761C28.3878 30.9121 26.881 29.8989 25.2285 29.1878L24.8965 29.0501C23.1133 28.3347 21.2053 27.9805 19.2842 28.0091L18.9248 28.0188C17.1271 28.0902 15.3571 28.496 13.7061 29.2161L13.3779 29.3645C11.7473 30.1245 10.2713 31.182 9.02637 32.4837L8.78027 32.7474C7.56964 34.078 6.61637 35.6236 5.9707 37.305L5.8457 37.6429C5.2428 39.3378 4.96005 41.1317 5.01367 42.9319H5.01172C5.01435 43.034 5.018 43.154 5.02148 43.2913C5.03517 43.83 5.05468 44.6415 5.07812 45.7317C5.12503 47.9127 5.18749 51.2113 5.25 55.6809C5.37503 64.6209 5.5 78.2485 5.5 97.0003C5.50017 109.829 13.1575 122.718 18.8965 130.196L19.3369 130.761C28.6588 142.542 42.823 149.276 50.1465 151.523C57.5559 153.796 67.9401 154.812 80.3203 150.033C83.3829 148.851 87.1842 146.499 91.1836 143.607C95.1755 140.72 99.3361 137.318 103.111 134.062C106.886 130.807 110.271 127.702 112.713 125.41C113.934 124.265 114.918 123.323 115.598 122.667C115.937 122.34 116.2 122.083 116.378 121.909C116.467 121.823 116.536 121.756 116.581 121.711L116.632 121.661L116.645 121.649L116.647 121.645L144.402 93.4026L144.385 93.3821C145.311 92.5727 146.087 91.6061 146.677 90.5296L146.919 90.0618C147.455 88.9545 147.791 87.7619 147.913 86.5403L147.952 86.0149C148.013 84.7864 147.856 83.5577 147.491 82.386L147.321 81.887C146.896 80.7324 146.272 79.6626 145.478 78.7268L145.126 78.3343C144.283 77.4377 143.291 76.6973 142.193 76.1468L141.717 75.9222C140.59 75.4263 139.387 75.1335 138.161 75.0559L137.635 75.0364C136.229 75.0183 134.833 75.2836 133.532 75.8167L133.05 76.0286C131.939 76.5506 130.927 77.2646 130.062 78.139L130.049 78.1263L106.334 99.3724C106.133 99.5523 105.824 99.5402 105.638 99.345C105.452 99.1497 105.455 98.842 105.644 98.6497L139.467 64.3274L139.458 64.3206C141.13 62.1601 142.009 59.4963 141.958 56.7757L141.936 56.2308C141.76 53.5043 140.656 50.9254 138.817 48.9192L138.439 48.5266C136.504 46.5987 133.971 45.3954 131.265 45.1077L130.722 45.0618C127.813 44.8861 124.939 45.7786 122.642 47.5716L122.631 47.5589L91.8389 75.8684C91.6393 76.0517 91.3291 76.0426 91.1406 75.8479C90.9523 75.653 90.9536 75.343 91.1436 75.1497L124.397 41.3977L124.394 41.3938C126.485 39.3025 127.763 36.5421 128.012 33.6077L128.048 33.0188C128.159 30.0632 127.218 27.1705 125.404 24.8499L125.03 24.3929C123.101 22.151 120.445 20.6703 117.537 20.2024L116.952 20.1224C113.897 19.7777 110.826 20.5722 108.322 22.346L108.341 22.3655L71.3408 56.8655C71.1423 57.0504 70.8323 57.0437 70.6426 56.8499C70.4529 56.6556 70.4529 56.3448 70.6426 56.1507L93.6514 32.6516L93.6318 32.6321C94.8236 31.4404 95.7271 30.0129 96.2969 28.4593C96.3601 28.2867 96.4196 28.1123 96.4746 27.9368C96.5846 27.5854 96.6779 27.228 96.7539 26.8665C96.9059 26.1439 96.989 25.4025 96.999 24.6536C97.0015 24.4668 96.9997 24.2799 96.9932 24.094C96.901 21.4854 95.923 18.9848 94.2217 17.0052L93.8467 16.5891C91.9139 14.5502 89.3061 13.2933 86.5205 13.0452L85.9609 13.0091Z" fill="#4FC3F7"/>
</g>
<g filter="url(#filter2_d_39_7517)">
<path d="M39 74C39 74 46.1838 85.1025 48.0885 93.6216C50.1394 102.794 48.0885 118 48.0885 118" stroke="white" stroke-linecap="round" stroke-linejoin="round"/>
</g>
<g filter="url(#filter3_d_39_7517)">
<path fill-rule="evenodd" clip-rule="evenodd" d="M109.518 83.0134C110.854 83.0828 112.162 83.419 113.365 84.0027C114.475 84.5415 115.473 85.2835 116.313 86.1853L116.353 86.1463L149 118.793V105.5H149.044C149.305 102.503 150.731 99.7276 153.015 97.7693C155.302 95.8077 158.269 94.8228 161.276 95.0261C164.283 95.2296 167.09 96.6053 169.093 98.8572C171.08 101.092 172.118 104.013 171.988 107H172V137.557C172 137.594 172 137.649 171.999 137.72C171.998 137.864 171.995 138.075 171.989 138.346C171.978 138.89 171.957 139.678 171.914 140.655C171.828 142.609 171.655 145.324 171.309 148.369C170.621 154.442 169.239 161.896 166.443 167.232C160.889 177.836 153.309 184.4 144.243 189.437C135.152 194.488 128.065 195.324 121.437 194.496C109.701 193.029 101.266 188.139 95.7157 183.807L95.1874 183.39C87.6614 177.37 79.2682 169.1 72.7645 162.346C69.511 158.968 66.7267 155.964 64.7557 153.805C63.7706 152.726 62.9881 151.858 62.452 151.26C62.3949 151.196 62.3405 151.135 62.2889 151.077L62.2616 151.106C60.4349 149.368 59.2982 147.033 59.0507 144.535L59.0136 144.033C58.8855 141.514 59.668 139.039 61.2089 137.056L61.5272 136.667C63.1683 134.752 65.4396 133.496 67.9218 133.119L68.4218 133.055C71.0577 132.783 73.6963 133.52 75.8114 135.111L75.8134 135.11L75.8524 135.141C75.8707 135.155 75.8899 135.168 75.9081 135.182L75.9061 135.184L80.0018 138.481L69.1679 128.874C68.2279 128.163 67.4131 127.301 66.7606 126.321L66.4745 125.865C65.8323 124.785 65.3897 123.599 65.1669 122.365L65.0848 121.833C64.9252 120.586 64.9906 119.321 65.2772 118.1L65.4139 117.58C65.7635 116.373 66.3267 115.239 67.0751 114.233L67.4071 113.809C68.208 112.841 69.1756 112.025 70.2626 111.399L70.7362 111.142C71.8563 110.572 73.0684 110.209 74.3143 110.067L74.8505 110.02C76.2844 109.931 77.7222 110.138 79.0731 110.627C80.4238 111.116 81.6601 111.876 82.705 112.862L82.6796 112.887L89.8085 119.289L76.6493 106.356L76.6766 106.328L76.66 106.309C75.8169 105.322 75.1523 104.194 74.6981 102.974C74.1792 101.581 73.9455 100.098 74.0106 98.6131C74.0759 97.1278 74.4389 95.6702 75.078 94.3279C75.7171 92.9857 76.6196 91.7855 77.7313 90.7986C78.8432 89.8117 80.1421 89.0582 81.5507 88.5828C82.9592 88.1074 84.4491 87.9197 85.9315 88.031C87.4139 88.1424 88.8588 88.5508 90.1805 89.2312C91.3732 89.8453 92.4417 90.6716 93.3388 91.6658L93.3563 91.6492L104.403 102.886L101.63 99.8357L101.671 99.7976C100.828 98.8893 100.159 97.834 99.702 96.6804C99.2098 95.4369 98.9721 94.1064 99.0028 92.7693C99.0336 91.4323 99.3319 90.1148 99.8807 88.8953C100.43 87.6757 101.218 86.5784 102.198 85.6687C103.179 84.7591 104.332 84.0556 105.589 83.5994C106.846 83.1432 108.183 82.9441 109.518 83.0134ZM109.472 83.9119C108.256 83.8488 107.04 84.0301 105.896 84.4451C104.752 84.8602 103.703 85.5011 102.81 86.3289C101.918 87.1565 101.202 88.1548 100.702 89.2644C100.203 90.3743 99.9302 91.5741 99.9022 92.7908C99.8743 94.0073 100.091 95.217 100.539 96.3484C100.956 97.4013 101.567 98.3648 102.337 99.1931L102.37 99.1638L122.37 121.164L122.43 121.244C122.547 121.441 122.517 121.699 122.344 121.863C122.146 122.05 121.834 122.044 121.643 121.85L92.8925 92.6043L92.8593 92.6326L92.5243 92.2517C91.7235 91.3835 90.776 90.6608 89.7235 90.1189C88.5207 89.4997 87.2054 89.1285 85.8563 89.0271C84.5074 88.9258 83.1517 89.0965 81.87 89.5291C80.5882 89.9617 79.4062 90.6476 78.3944 91.5457L78.0243 91.8914C77.1813 92.7189 76.4883 93.6887 75.9794 94.7576C75.3979 95.979 75.068 97.3055 75.0087 98.657C74.9494 100.008 75.1625 101.358 75.6347 102.626C76.1069 103.893 76.8287 105.054 77.7577 106.037L77.7538 106.04L106.35 134.143L106.414 134.22C106.543 134.409 106.527 134.669 106.364 134.843C106.201 135.016 105.943 135.047 105.746 134.93L105.666 134.872L81.993 113.615L81.9843 113.626L81.6239 113.303C80.8869 112.675 80.0578 112.165 79.1659 111.79L78.7157 111.614C77.4999 111.174 76.2064 110.988 74.9159 111.068L74.4335 111.11C73.3119 111.238 72.2211 111.566 71.2128 112.079L70.787 112.309C69.8086 112.872 68.9376 113.606 68.2167 114.478L67.9179 114.859C67.2441 115.765 66.7374 116.785 66.4227 117.872L66.2997 118.341C66.0418 119.44 65.9832 120.578 66.1268 121.7C66.2911 122.982 66.7162 124.218 67.3768 125.329C68.0375 126.44 68.9195 127.404 69.9677 128.161L69.9296 128.213L96.3319 151.626L96.3993 151.699C96.537 151.882 96.5348 152.141 96.3817 152.322C96.2066 152.529 95.8979 152.559 95.6864 152.389L75.2948 135.976L75.2675 136.013L74.9022 135.746C73.0481 134.454 70.7869 133.866 68.5292 134.099L68.08 134.157C65.8458 134.496 63.8011 135.627 62.3241 137.35L62.038 137.701C60.6513 139.485 59.9472 141.713 60.0624 143.979C60.1698 146.092 60.982 148.099 62.3554 149.685C62.3694 149.673 62.3749 149.67 62.3749 149.67L62.3778 149.673C62.38 149.675 62.3842 149.679 62.3886 149.684C62.3974 149.694 62.4103 149.71 62.4276 149.729C62.4373 149.74 62.4484 149.753 62.4607 149.767C62.4932 149.803 62.5347 149.85 62.5848 149.907C62.6673 150 62.7737 150.119 62.9022 150.262C62.9302 150.29 62.9569 150.319 62.9852 150.345L62.9804 150.349C63.0472 150.424 63.119 150.505 63.1962 150.592C63.7304 151.188 64.5109 152.055 65.494 153.132C67.4605 155.285 70.2391 158.282 73.4852 161.653C79.9815 168.399 88.3385 176.63 95.8124 182.609L96.3309 183.019C101.779 187.272 110.05 192.065 121.562 193.504C127.975 194.305 134.848 193.512 143.757 188.562C152.69 183.599 160.111 177.164 165.557 166.767C168.261 161.604 169.629 154.308 170.315 148.256C170.657 145.239 170.828 142.547 170.914 140.61C170.957 139.642 170.978 138.863 170.989 138.327C170.994 138.059 170.998 137.851 170.999 137.711C170.999 137.651 171 137.604 171 137.57C171 137.563 171 137.558 171 137.553V107.019H170.992C171.128 104.27 170.179 101.576 168.349 99.5183C166.52 97.4613 163.956 96.2051 161.209 96.0193C158.462 95.8335 155.752 96.7331 153.662 98.5252C151.572 100.317 150.27 102.858 150.034 105.601L150 105.598V120C150 120.202 149.878 120.384 149.691 120.462C149.505 120.539 149.289 120.496 149.146 120.353L115.646 86.8533L115.678 86.8211C114.909 85.99 113.992 85.3072 112.973 84.8123C111.878 84.281 110.687 83.975 109.472 83.9119Z" fill="#4FC3F7"/>
<path d="M109.472 83.9119C108.256 83.8488 107.04 84.0301 105.896 84.4451C104.752 84.8602 103.703 85.5011 102.81 86.3289C101.918 87.1565 101.202 88.1548 100.702 89.2644C100.203 90.3743 99.9302 91.5741 99.9022 92.7908C99.8743 94.0073 100.091 95.217 100.539 96.3484C100.956 97.4013 101.567 98.3648 102.337 99.1931L102.37 99.1638L122.37 121.164L122.43 121.244C122.547 121.441 122.517 121.699 122.344 121.863C122.146 122.05 121.834 122.044 121.643 121.85L92.8925 92.6043L92.8593 92.6326L92.5243 92.2517C91.7235 91.3835 90.776 90.6608 89.7235 90.1189C88.5207 89.4997 87.2054 89.1285 85.8563 89.0271C84.5074 88.9258 83.1517 89.0965 81.87 89.5291C80.5882 89.9617 79.4062 90.6476 78.3944 91.5457L78.0243 91.8914C77.1813 92.7189 76.4883 93.6887 75.9794 94.7576C75.3979 95.979 75.068 97.3055 75.0087 98.657C74.9494 100.008 75.1625 101.358 75.6347 102.626C76.1069 103.893 76.8287 105.054 77.7577 106.037L77.7538 106.04L106.35 134.143L106.414 134.22C106.543 134.409 106.527 134.669 106.364 134.843C106.201 135.016 105.943 135.047 105.746 134.93L105.666 134.872L81.993 113.615L81.9843 113.626L81.6239 113.303C80.8869 112.675 80.0578 112.165 79.1659 111.79L78.7157 111.614C77.4999 111.174 76.2064 110.988 74.9159 111.068L74.4335 111.11C73.3119 111.238 72.2211 111.566 71.2128 112.079L70.787 112.309C69.8086 112.872 68.9376 113.606 68.2167 114.478L67.9179 114.859C67.2441 115.765 66.7374 116.785 66.4227 117.872L66.2997 118.341C66.0418 119.44 65.9832 120.578 66.1268 121.7C66.2911 122.982 66.7162 124.218 67.3768 125.329C68.0375 126.44 68.9195 127.404 69.9677 128.161L69.9296 128.213L96.3319 151.626L96.3993 151.699C96.537 151.882 96.5348 152.141 96.3817 152.322C96.2066 152.529 95.8979 152.559 95.6864 152.389L75.2948 135.976L75.2675 136.013L74.9022 135.746C73.0481 134.454 70.7869 133.866 68.5292 134.099L68.08 134.157C65.8458 134.496 63.8011 135.627 62.3241 137.35L62.038 137.701C60.6513 139.485 59.9472 141.713 60.0624 143.979C60.1698 146.092 60.982 148.099 62.3554 149.685C62.3694 149.673 62.3749 149.67 62.3749 149.67L62.3778 149.673C62.38 149.675 62.3842 149.679 62.3886 149.684C62.3974 149.694 62.4103 149.71 62.4276 149.729L62.4607 149.767C62.4932 149.803 62.5347 149.85 62.5848 149.907C62.6673 150 62.7737 150.119 62.9022 150.262C62.9302 150.29 62.9569 150.319 62.9852 150.345L62.9804 150.349C63.0472 150.424 63.119 150.505 63.1962 150.592C63.7304 151.188 64.5109 152.055 65.494 153.132C67.4605 155.285 70.2391 158.282 73.4852 161.653C79.9815 168.399 88.3385 176.63 95.8124 182.609L96.3309 183.019C101.779 187.272 110.05 192.065 121.562 193.504C127.975 194.305 134.848 193.512 143.757 188.562C152.69 183.599 160.111 177.164 165.557 166.767C168.261 161.604 169.629 154.308 170.315 148.256C170.657 145.239 170.828 142.547 170.914 140.61C170.957 139.642 170.978 138.863 170.989 138.327C170.994 138.059 170.998 137.851 170.999 137.711C170.999 137.651 171 137.604 171 137.57L171 137.553V107.019H170.992C171.128 104.27 170.179 101.576 168.349 99.5183C166.52 97.4613 163.956 96.2051 161.209 96.0193C158.462 95.8335 155.752 96.7331 153.662 98.5252C151.572 100.317 150.27 102.858 150.034 105.601L150 105.598V120C150 120.202 149.878 120.384 149.691 120.462C149.505 120.539 149.289 120.496 149.146 120.353L115.646 86.8533L115.678 86.8211C114.909 85.99 113.992 85.3072 112.973 84.8123C111.878 84.281 110.687 83.975 109.472 83.9119Z" fill="white"/>
</g>
<g filter="url(#filter4_d_39_7517)">
<path d="M144.397 169.356C144.397 169.356 140.763 158.336 141.365 151.114C142.012 143.338 148.208 132.312 148.208 132.312" stroke="#4FC3F7" stroke-linecap="round" stroke-linejoin="round"/>
</g>
<defs>
<filter id="filter0_d_39_7517" x="131" y="0" width="58.0596" height="50.9996" filterUnits="userSpaceOnUse" color-interpolation-filters="sRGB">
<feFlood flood-opacity="0" result="BackgroundImageFix"/>
<feColorMatrix in="SourceAlpha" type="matrix" values="0 0 0 0 0 0 0 0 0 0 0 0 0 0 0 0 0 0 127 0" result="hardAlpha"/>
<feOffset dy="4"/>
<feGaussianBlur stdDeviation="2"/>
<feComposite in2="hardAlpha" operator="out"/>
<feColorMatrix type="matrix" values="0 0 0 0 0 0 0 0 0 0 0 0 0 0 0 0 0 0 0.15 0"/>
<feBlend mode="normal" in2="BackgroundImageFix" result="effect1_dropShadow_39_7517"/>
<feBlend mode="normal" in="SourceGraphic" in2="effect1_dropShadow_39_7517" result="shape"/>
</filter>
<filter id="filter1_d_39_7517" x="0" y="12" width="153" height="150.425" filterUnits="userSpaceOnUse" color-interpolation-filters="sRGB">
<feFlood flood-opacity="0" result="BackgroundImageFix"/>
<feColorMatrix in="SourceAlpha" type="matrix" values="0 0 0 0 0 0 0 0 0 0 0 0 0 0 0 0 0 0 127 0" result="hardAlpha"/>
<feOffset dy="4"/>
<feGaussianBlur stdDeviation="2"/>
<feComposite in2="hardAlpha" operator="out"/>
<feColorMatrix type="matrix" values="0 0 0 0 0 0 0 0 0 0 0 0 0 0 0 0 0 0 0.15 0"/>
<feBlend mode="normal" in2="BackgroundImageFix" result="effect1_dropShadow_39_7517"/>
<feBlend mode="normal" in="SourceGraphic" in2="effect1_dropShadow_39_7517" result="shape"/>
</filter>
<filter id="filter2_d_39_7517" x="33.5" y="69.4999" width="19" height="53.0001" filterUnits="userSpaceOnUse" color-interpolation-filters="sRGB">
<feFlood flood-opacity="0" result="BackgroundImageFix"/>
<feColorMatrix in="SourceAlpha" type="matrix" values="0 0 0 0 0 0 0 0 0 0 0 0 0 0 0 0 0 0 127 0" result="hardAlpha"/>
<feOffset dx="-1"/>
<feGaussianBlur stdDeviation="2"/>
<feComposite in2="hardAlpha" operator="out"/>
<feColorMatrix type="matrix" values="0 0 0 0 0 0 0 0 0 0 0 0 0 0 0 0 0 0 0.25 0"/>
<feBlend mode="normal" in2="BackgroundImageFix" result="effect1_dropShadow_39_7517"/>
<feBlend mode="normal" in="SourceGraphic" in2="effect1_dropShadow_39_7517" result="shape"/>
</filter>
<filter id="filter3_d_39_7517" x="51" y="79" width="121" height="119.774" filterUnits="userSpaceOnUse" color-interpolation-filters="sRGB">
<feFlood flood-opacity="0" result="BackgroundImageFix"/>
<feColorMatrix in="SourceAlpha" type="matrix" values="0 0 0 0 0 0 0 0 0 0 0 0 0 0 0 0 0 0 127 0" result="hardAlpha"/>
<feOffset dx="-4"/>
<feGaussianBlur stdDeviation="2"/>
<feComposite in2="hardAlpha" operator="out"/>
<feColorMatrix type="matrix" values="0 0 0 0 0 0 0 0 0 0 0 0 0 0 0 0 0 0 0.1 0"/>
<feBlend mode="normal" in2="BackgroundImageFix" result="effect1_dropShadow_39_7517"/>
<feBlend mode="normal" in="SourceGraphic" in2="effect1_dropShadow_39_7517" result="shape"/>
</filter>
<filter id="filter4_d_39_7517" x="137.797" y="127.812" width="15.9106" height="46.044" filterUnits="userSpaceOnUse" color-interpolation-filters="sRGB">
<feFlood flood-opacity="0" result="BackgroundImageFix"/>
<feColorMatrix in="SourceAlpha" type="matrix" values="0 0 0 0 0 0 0 0 0 0 0 0 0 0 0 0 0 0 127 0" result="hardAlpha"/>
<feOffset dx="1"/>
<feGaussianBlur stdDeviation="2"/>
<feComposite in2="hardAlpha" operator="out"/>
<feColorMatrix type="matrix" values="0 0 0 0 0 0 0 0 0 0 0 0 0 0 0 0 0 0 0.25 0"/>
<feBlend mode="normal" in2="BackgroundImageFix" result="effect1_dropShadow_39_7517"/>
<feBlend mode="normal" in="SourceGraphic" in2="effect1_dropShadow_39_7517" result="shape"/>
</filter>
</defs>
</svg>
