<svg width="25" height="24" viewBox="0 0 25 24" fill="none" xmlns="http://www.w3.org/2000/svg">
<path d="M5.65039 19.2C6.11156 18.6835 8.27144 16.3067 8.9044 16.3067H15.5968C16.514 16.3067 18.3864 18.2769 18.8504 18.9714M21.8504 12C21.8504 17.302 17.5523 21.6 12.2504 21.6C6.94846 21.6 2.65039 17.302 2.65039 12C2.65039 6.69809 6.94846 2.40002 12.2504 2.40002C17.5523 2.40002 21.8504 6.69809 21.8504 12ZM15.6892 8.72798C15.6892 6.89647 14.1431 5.40002 12.2507 5.40002C10.3583 5.40002 8.81213 6.89647 8.81213 8.72798C8.81213 10.5595 10.3583 12.0559 12.2507 12.0559C14.1431 12.0559 15.6892 10.5595 15.6892 8.72798Z" stroke="#191A23" stroke-width="1.5"/>
</svg>
